<svg xmlns="http://www.w3.org/2000/svg" viewBox="40 16 1150 390" role="img" aria-label="Rumianek – apteka w Twoim telefonie">
  <defs>
    <path id="petal" d="M-11,-44 C-18,-86 -22,-122 -21,-138 A21 21 0 0 1 21,-138 C22,-122 18,-86 11,-44 Z"/>
    <linearGradient id="dome" x1="0" y1="0" x2="0" y2="1">
      <stop offset="0" stop-color="#FFD660"/><stop offset=".5" stop-color="#F7C040"/><stop offset="1" stop-color="#E8A328"/>
    </linearGradient>
    <pattern id="dots" width="6" height="6" patternUnits="userSpaceOnUse"><circle cx="3" cy="3" r="1.15" fill="#C4830E" opacity=".6"/></pattern>
    <linearGradient id="fade" x1="0" y1="0" x2="0" y2="1"><stop offset=".1" stop-color="#000"/><stop offset="1" stop-color="#fff"/></linearGradient>
    <mask id="dotmask"><rect x="-80" y="-60" width="160" height="120" fill="url(#fade)"/></mask>
  </defs>
  <g id="mark">
    <g fill="none" stroke="#2947A3" stroke-width="4" stroke-linecap="round" stroke-linejoin="round">
      <path d="M212,305 C226,352 262,386 322,391 C362,394 396,370 416,338" stroke-width="5"/>
      <path d="M250,373 C200,366 150,348 96,318"/>
      <path d="M228.4,365.3 q-8.6,-17.2 -21.5,-32.2"/>
      <path d="M218.8,348.1 l-16.1,-4.3"/>
      <path d="M228.4,365.3 q-15.0,6.4 -32.2,21.5"/>
      <path d="M212.3,373.9 l-4.3,15.0"/>
      <path d="M203.8,356.5 q-7.9,-15.8 -19.7,-29.5"/>
      <path d="M194.9,340.7 l-14.8,-3.9"/>
      <path d="M203.8,356.5 q-13.8,5.9 -29.5,19.7"/>
      <path d="M189.0,364.4 l-3.9,13.8"/>
      <path d="M179.2,347.7 q-7.2,-14.4 -17.9,-26.9"/>
      <path d="M171.1,333.3 l-13.5,-3.6"/>
      <path d="M179.2,347.7 q-12.6,5.4 -26.9,17.9"/>
      <path d="M165.7,354.9 l-3.6,12.6"/>
      <path d="M154.5,338.9 q-6.5,-12.9 -16.2,-24.3"/>
      <path d="M147.2,326.0 l-12.1,-3.2"/>
      <path d="M154.5,338.9 q-11.3,4.9 -24.3,16.2"/>
      <path d="M142.4,345.4 l-3.2,11.3"/>
      <path d="M129.9,330.1 q-5.8,-11.5 -14.4,-21.6"/>
      <path d="M123.4,318.6 l-10.8,-2.9"/>
      <path d="M129.9,330.1 q-10.1,4.3 -21.6,14.4"/>
      <path d="M119.1,335.9 l-2.9,10.1"/>
      <path d="M96,318 l-14,-8"/>
      <path d="M96,318 l-12,6"/>
    </g>
    <g transform="translate(200 186) scale(1 0.8)" fill="#fff" stroke="#2947A3" stroke-width="5.5" stroke-linejoin="round">
      <use href="#petal" transform="rotate(11.25)"/>
      <use href="#petal" transform="rotate(33.75)"/>
      <use href="#petal" transform="rotate(56.25)"/>
      <use href="#petal" transform="rotate(78.75)"/>
      <use href="#petal" transform="rotate(101.25)"/>
      <use href="#petal" transform="rotate(123.75)"/>
      <use href="#petal" transform="rotate(146.25)"/>
      <use href="#petal" transform="rotate(168.75)"/>
      <use href="#petal" transform="rotate(191.25)"/>
      <use href="#petal" transform="rotate(213.75)"/>
      <use href="#petal" transform="rotate(236.25)"/>
      <use href="#petal" transform="rotate(258.75)"/>
      <use href="#petal" transform="rotate(281.25)"/>
      <use href="#petal" transform="rotate(303.75)"/>
      <use href="#petal" transform="rotate(326.25)"/>
      <use href="#petal" transform="rotate(348.75)"/>
    </g>
    <g transform="translate(200 178)">
      <path d="M-72,20 C-72,-30 -40,-57 0,-57 C40,-57 72,-30 72,20 Q0,58 -72,20 Z" fill="url(#dome)" stroke="#C98A12" stroke-width="4.5" stroke-linejoin="round"/>
      <path d="M-72,20 C-72,-30 -40,-57 0,-57 C40,-57 72,-30 72,20 Q0,58 -72,20 Z" fill="url(#dots)" mask="url(#dotmask)"/>
      <path d="M-40,-38 C-25,-50 25,-50 40,-38 C20,-30 -20,-30 -40,-38 Z" fill="#fff" opacity=".4"/>
    </g>
  </g>
  <text x="458" y="236" font-family="Quicksand, sans-serif" font-weight="700" font-size="146" fill="#2947A3" letter-spacing="-1">Rumianek</text>
  <text x="464" y="302" font-family="'Open Sans', sans-serif" font-size="42" fill="#737373">apteka w Twoim telefonie</text>
</svg>
